<svg width="24" height="24" viewBox="0 0 24 24" fill="none" xmlns="http://www.w3.org/2000/svg">
<path d="M6.85405 16.646L4.44003 14.232C3.96702 13.76 3.34002 13.5 2.67205 13.5H1.00002C0.724016 13.5 0.5 13.724 0.5 14C0.5 14.276 0.724016 14.5 1.00002 14.5H2.672C3.06598 14.5 3.45298 14.66 3.73198 14.939L5.29297 16.5H1.00002C0.724016 16.5 0.5 16.724 0.5 17C0.5 17.276 0.724016 17.5 1.00002 17.5H6.5C6.70198 17.5 6.884 17.378 6.962 17.191C7.04 17.004 6.99702 16.789 6.85405 16.646Z" fill="#868D8D"/>
<path d="M6.50002 19C6.22403 19 6.00001 19.224 6.00001 19.5V21C6.00001 21.276 5.77501 21.5 5.49999 21.5H2.5C2.22498 21.5 1.99998 21.276 1.99998 21V19C1.99998 18.724 1.77597 18.5 1.49997 18.5C1.22397 18.5 1 18.724 1 19V21C1 21.827 1.67298 22.5 2.5 22.5H5.49999C6.32701 22.5 6.99999 21.827 6.99999 21V19.5C6.99999 19.224 6.77602 19 6.50002 19Z" fill="#868D8D"/>
<path d="M21.731 10.557C20.353 9.836 17.26 9.5 12 9.5C6.73997 9.5 3.64702 9.836 2.26898 10.557C0.699 11.377 0 12.747 0 15C0 17.166 0.495984 19.05 0.516984 19.129C0.574969 19.348 0.772969 19.5 0.999984 19.5H5.382L7.27598 20.447C7.34597 20.482 7.42298 20.5 7.5 20.5H16.5C16.577 20.5 16.654 20.482 16.723 20.447L18.618 19.5H23C23.227 19.5 23.425 19.348 23.483 19.129C23.504 19.05 24 17.166 24 15C24 12.747 23.301 11.377 21.731 10.557ZM22.605 18.5H18.501C18.423 18.5 18.346 18.518 18.277 18.553L16.382 19.5H7.61798L5.724 18.553C5.65402 18.518 5.577 18.5 5.49998 18.5H1.39598C1.257 17.863 0.999984 16.487 0.999984 14.9999C0.999984 13.1169 1.50197 12.086 2.73098 11.4429C3.92897 10.8169 7.047 10.4999 12 10.4999C16.953 10.4999 20.071 10.817 21.269 11.4429C22.498 12.0859 23 13.1169 23 14.9999C23 16.487 22.743 17.863 22.605 18.5Z" fill="#868D8D"/>
<path d="M23 16.5H18.707L20.267 14.939C20.547 14.66 20.933 14.5 21.328 14.5H23C23.276 14.5 23.5 14.276 23.5 14C23.5 13.724 23.276 13.5 23 13.5H21.328C20.66 13.5 20.033 13.76 19.56 14.232L17.146 16.646C17.004 16.789 16.961 17.004 17.038 17.191C17.115 17.3781 17.298 17.5 17.5 17.5H23C23.276 17.5 23.5 17.276 23.5 17C23.5 16.724 23.276 16.5 23 16.5Z" fill="#868D8D"/>
<path d="M17.953 13.788C17.87 13.612 17.694 13.5 17.5 13.5H6.50001C6.306 13.5 6.13003 13.612 6.04701 13.788C5.96503 13.963 5.991 14.171 6.11601 14.32L8.616 17.32C8.71101 17.434 8.85201 17.5 9 17.5H15C15.148 17.5 15.289 17.434 15.384 17.32L17.884 14.32C18.009 14.171 18.035 13.963 17.953 13.788ZM14.765 16.5H9.234L7.56698 14.5H16.432L14.765 16.5Z" fill="#868D8D"/>
<path d="M21.959 10.801C21.39 9.49302 19.486 5.18202 18.824 4.619C17.999 3.91798 15.636 3.5 12.5 3.5H11.5C8.36402 3.5 6.00101 3.91798 5.17601 4.61802C4.51399 5.18103 2.60899 9.49203 2.04101 10.8C1.93202 11.054 2.04799 11.348 2.30102 11.458C2.55302 11.568 2.84904 11.453 2.95901 11.199C4.08799 8.60005 5.46902 5.71203 5.82401 5.38105C6.20899 5.05405 7.83799 4.50003 11.5 4.50003H12.5C16.162 4.50003 17.791 5.05405 18.174 5.37903C18.531 5.71203 19.912 8.59902 21.041 11.199C21.123 11.388 21.308 11.5 21.5 11.5C21.566 11.5 21.635 11.487 21.699 11.459C21.952 11.349 22.068 11.054 21.959 10.801Z" fill="#868D8D"/>
<path d="M22.5 18.5C22.224 18.5 22 18.724 22 19V21C22 21.276 21.775 21.5 21.5 21.5H18.5C18.225 21.5 18 21.276 18 21V19.5C18 19.224 17.776 19 17.5 19C17.224 19 16.9999 19.224 16.9999 19.5V21C16.9999 21.827 17.6729 22.5 18.4999 22.5H21.4999C22.327 22.5 22.9999 21.827 22.9999 21V19C23 18.724 22.776 18.5 22.5 18.5Z" fill="#868D8D"/>
</svg>
